<svg width="100" height="100" viewBox="0 0 100 100" fill="none" xmlns="http://www.w3.org/2000/svg">
<g clip-path="url(#clip0_627_77)">
<path d="M77.85 36.08C79.86 34.39 82.78 35.5 84.85 36.52C95.15 42.19 86.9 57.58 77.18 58.31C59.27 60.52 35.18 49.84 24.89 34.94C23.54 32.8 22.49 30.42 22.05 27.86C20.66 20.3 25.21 10.79 33.61 10.21C42.03 9.41998 48.39 16.91 47.77 25.01C47.49 27.52 46.82 30.45 44.29 31.67C41.55 32.8 38.72 30.35 38.52 27.65C38.08 22.32 42.68 17.95 47.51 16.71C54.87 14.82 59.8 21.07 58.35 28.07C58.03 29.9 57.4 31.97 55.72 33.04C54.56 33.69 52.97 33.68 51.97 32.72C50.17 30.44 51.89 25.86 53.54 23.86C55.86 20.72 60.71 20.16 63.57 22.87C66.37 25.48 66.46 30.16 65.14 33.43C65.1 33.42 65.07 33.37 65.08 33.33C65.37 32.13 65.52 30.91 65.7 29.7C65.99 27.29 65.22 24.69 63.41 23.03C60.64 20.47 56 21.04 53.81 24.08C52.31 25.97 51.54 28.45 51.69 30.85C51.73 31.44 51.89 32.01 52.29 32.38C53.1 33.16 54.51 33.14 55.45 32.59C57.89 30.78 58.01 27.16 57.9 24.36C57.56 19.23 52.55 15.91 47.67 17.38C43.22 18.52 38.83 22.71 39.28 27.55C39.46 29.8 41.76 31.82 43.96 30.91C46.03 29.91 46.7 27.1 46.88 24.95C47.24 17.55 41.29 10.94 33.76 11.89C26.65 12.79 22.52 20.91 23.52 27.62C24.21 32.32 27.09 36.5 30.45 39.97C40.86 50.33 55.2 56.67 69.78 58.06C74.55 58.33 79.9 58.32 83.74 55.09C89.41 50.75 92.38 40.6 84.8 36.6C82.72 35.44 79.74 34.62 77.84 36.09L77.85 36.08Z" fill="#231F20"/>
<path d="M14.24 64.8299C13.49 64.6799 12.96 64.3199 12.65 63.7599C12.34 63.1999 12.18 62.4999 12.19 61.6799C12.19 60.8499 12.29 59.9699 12.49 59.0299C12.61 58.4199 12.77 57.7599 12.96 57.0499C13.15 56.3399 13.37 55.6099 13.62 54.8399C13.23 54.8699 12.86 54.8899 12.49 54.8999C12.12 54.8999 11.76 54.8999 11.41 54.8599C11.18 54.8099 10.94 54.7299 10.67 54.6099C10.4 54.4899 10.18 54.3499 10.01 54.1899C9.83 54.0299 9.76 53.8699 9.79 53.7099C9.83 53.5399 9.98 53.3999 10.25 53.3099C10.44 53.2399 10.73 53.1899 11.11 53.1599C11.49 53.1299 11.99 53.0999 12.61 53.0799C12.63 53.0799 12.65 53.0799 12.69 53.0799C12.71 53.0799 12.72 53.0999 12.74 53.1199C12.73 53.1899 12.61 53.2899 12.38 53.4299C12.15 53.5699 12.03 53.6799 12.01 53.7599C12.01 53.7999 12.02 53.8199 12.08 53.8299C12.14 53.8399 12.24 53.8299 12.41 53.8199C12.67 53.7799 12.94 53.7399 13.21 53.6999C13.48 53.6599 13.76 53.6099 14.04 53.5599C14.45 52.3399 14.89 51.1099 15.35 49.8899C15.81 48.6699 16.27 47.5099 16.73 46.4099C17.19 45.3099 17.6 44.3699 17.96 43.5699C17.81 43.6699 17.66 43.8299 17.49 44.0699C17.32 44.3099 17.16 44.5299 17.01 44.7399C16.86 44.9499 16.73 45.0399 16.63 45.0199C16.59 45.0199 16.58 44.9699 16.6 44.8999C16.62 44.8299 16.7 44.6599 16.87 44.3799C17.04 44.0999 17.24 43.7899 17.5 43.4399C17.75 43.0899 18.02 42.7499 18.3 42.4199C18.58 42.0899 18.84 41.8199 19.09 41.6099C19.34 41.4099 19.54 41.3199 19.7 41.3499C19.87 41.3899 20.06 41.4899 20.26 41.6799C20.46 41.8699 20.63 42.0599 20.78 42.2599C20.93 42.4599 20.99 42.6199 20.97 42.7199C20.96 42.7699 20.94 42.8099 20.92 42.8199C20.04 43.7699 19.12 45.0799 18.18 46.7699C17.24 48.4599 16.36 50.5499 15.54 53.0299C15.51 53.0799 15.49 53.1499 15.47 53.2299C16.54 52.9799 17.64 52.6699 18.78 52.3099C19.92 51.9499 21.01 51.5499 22.08 51.1199C23.14 50.6799 24.11 50.2099 24.98 49.7099C25.86 49.2099 26.57 48.6699 27.13 48.1199C27.69 47.5599 28.03 46.9899 28.15 46.3899C28.28 45.7399 28.11 45.1399 27.65 44.5699C27.18 43.9999 26.52 43.4799 25.65 42.9999C24.78 42.5199 23.82 42.0999 22.74 41.7399C21.67 41.3799 20.59 41.0799 19.51 40.8599C18.58 40.6699 17.71 40.5199 16.89 40.4199C16.07 40.3199 15.37 40.2099 14.82 40.0899C14.44 40.0099 14.26 39.9099 14.28 39.7899C14.29 39.7199 14.41 39.6399 14.63 39.5599C15.57 39.2399 16.42 39.0699 17.19 39.0499C17.96 39.0299 18.66 39.0799 19.31 39.2099C19.96 39.3399 20.73 39.5699 21.63 39.8899C22.53 40.2099 23.44 40.5999 24.38 41.0599C25.31 41.5199 26.17 42.0399 26.94 42.5999C27.71 43.1699 28.32 43.7699 28.75 44.4199C29.18 45.0699 29.33 45.7099 29.2 46.3799C29.04 47.1699 28.58 47.9899 27.83 48.8399C27.07 49.6899 26.03 50.5299 24.7 51.3499C24.14 51.7099 23.34 52.0999 22.32 52.5399C21.29 52.9799 20.15 53.3899 18.89 53.7799C17.63 54.1699 16.35 54.4699 15.06 54.6699C14.96 55.0699 14.86 55.4799 14.77 55.8899C14.67 56.3099 14.59 56.7199 14.51 57.1199C14.17 58.7799 13.99 60.1099 13.96 61.1399C13.93 62.1699 14.04 62.9099 14.26 63.3999C14.49 63.8799 14.8 64.1699 15.21 64.2499C15.51 64.3099 15.77 64.3099 15.99 64.2299C16.21 64.1599 16.38 64.1299 16.48 64.1599C16.57 64.1799 16.6 64.2299 16.58 64.3199C16.58 64.3499 16.48 64.4399 16.31 64.5799C16.14 64.7199 15.88 64.8199 15.54 64.8999C15.2 64.9799 14.77 64.9599 14.27 64.8599L14.24 64.8299Z" fill="black"/>
<path d="M29.9 62.7599C29.6 62.6999 29.35 62.4999 29.14 62.1499C28.93 61.7999 28.87 61.4099 28.96 60.9599C29.13 60.1099 29.34 59.2599 29.57 58.4299C29.8 57.5999 30.03 56.8499 30.24 56.1999C30.45 55.5499 30.61 55.0599 30.71 54.7599C30.39 55.4599 30.02 56.1499 29.61 56.8199C29.2 57.4899 28.8 58.1299 28.41 58.7099C28.02 59.2999 27.68 59.7799 27.4 60.1699C27.12 60.5599 26.95 60.8099 26.89 60.9199C26.78 61.0999 26.61 61.1599 26.39 61.1199C26.22 61.0799 26.03 60.9899 25.82 60.8399C25.61 60.6899 25.44 60.5199 25.31 60.3399C25.17 60.1599 25.11 60.0099 25.11 59.8999C25.11 59.8099 25.12 59.7099 25.15 59.5899L25.22 59.2399C25.38 58.4399 25.59 57.6799 25.85 56.9499C26.11 56.2299 26.35 55.5099 26.59 54.7999C26.69 54.4799 26.82 54.0999 26.98 53.6799C27.14 53.2599 27.26 52.8499 27.34 52.4499C27.38 52.2799 27.4 52.0999 27.42 51.9299C27.44 51.7599 27.42 51.6099 27.4 51.4799C27.36 51.3299 27.21 51.1799 26.94 51.0499C26.68 50.9099 26.45 50.8299 26.26 50.7899C26.05 50.7499 25.96 50.6699 25.98 50.5699C26.02 50.3799 26.23 50.2999 26.6 50.3399C26.94 50.3699 27.25 50.3999 27.54 50.4099C27.83 50.4199 28.1 50.4599 28.36 50.5099C28.6 50.5599 28.8 50.6299 28.93 50.7099C29.07 50.7899 29.12 50.8999 29.09 51.0399C28.95 51.6999 28.73 52.4899 28.42 53.3999C28.11 54.3099 27.79 55.2399 27.46 56.1899C27.13 57.1399 26.89 58.0099 26.72 58.7899C26.67 59.0299 26.63 59.2699 26.6 59.4899C26.57 59.7099 26.6 59.8299 26.69 59.8499C26.81 59.8699 27.02 59.7199 27.3 59.3799C27.59 59.0199 27.93 58.5399 28.32 57.9199C28.71 57.3099 29.1 56.6499 29.5 55.9399C29.9 55.2299 30.27 54.5499 30.6 53.8899C30.93 53.2299 31.2 52.6799 31.4 52.2299C31.44 52.1499 31.51 52.1199 31.64 52.1399C31.83 52.1799 32.03 52.3199 32.22 52.5699C32.41 52.8199 32.54 53.0799 32.59 53.3399C32.5 53.5399 32.35 53.9099 32.15 54.4499C31.95 54.9899 31.73 55.5999 31.5 56.2799C31.27 56.9599 31.06 57.6299 30.87 58.2899C30.68 58.9499 30.54 59.5099 30.45 59.9599C30.34 60.4999 30.33 60.8299 30.42 60.9499C30.51 61.0699 30.62 61.1399 30.74 61.1599C30.88 61.1899 31.07 61.0999 31.3 60.8899C31.53 60.6799 31.78 60.4199 32.05 60.0899C32.32 59.7599 32.58 59.4399 32.85 59.1199C33.11 58.7999 33.35 58.5399 33.54 58.3199C33.74 58.1099 33.88 58.0099 33.97 58.0299C34.04 58.0399 34.07 58.0999 34.05 58.1799C34.04 58.2299 33.99 58.3199 33.91 58.4499C33.81 58.6099 33.63 58.8699 33.38 59.2299C33.13 59.5899 32.85 59.9799 32.53 60.3899C32.21 60.8099 31.88 61.1999 31.55 61.5699C31.22 61.9399 30.9 62.2399 30.6 62.4699C30.3 62.6999 30.05 62.7999 29.86 62.7599H29.9Z" fill="black"/>
<path d="M37.46 62.8298C36.81 62.6998 36.45 62.2498 36.37 61.4798C36.29 60.7098 36.37 59.7898 36.58 58.7298C36.7 58.1498 36.83 57.5898 36.98 57.0498C37.13 56.5098 37.25 56.0598 37.34 55.6898C37.07 55.5998 36.81 55.4898 36.58 55.3598C36.34 55.2298 36.16 55.1098 36.04 54.9898C36 55.1098 35.88 55.3398 35.68 55.6898C35.48 56.0398 35.25 56.4398 34.98 56.8998C34.71 57.3598 34.44 57.7998 34.15 58.2298C33.86 58.6598 33.6 59.0098 33.36 59.2798C33.12 59.5498 32.93 59.6698 32.8 59.6398C32.73 59.6298 32.71 59.5698 32.73 59.4598C32.76 59.3198 32.86 59.1398 33.03 58.9198C33.53 58.2798 33.99 57.6098 34.42 56.9098C34.85 56.2198 35.26 55.4898 35.65 54.7398C35.49 54.6298 35.39 54.4798 35.35 54.2798C35.31 54.0798 35.31 53.8698 35.35 53.6398C35.48 53.0098 35.67 52.5198 35.94 52.1498C36.2 51.7898 36.47 51.5298 36.74 51.3698C37.01 51.2098 37.2 51.1498 37.33 51.1798C37.54 51.2198 37.61 51.4198 37.54 51.7698C37.5 51.9398 37.41 52.1998 37.25 52.5398C37.09 52.8798 36.91 53.2198 36.71 53.5698C36.51 53.9198 36.35 54.1998 36.21 54.4098C36.39 54.5898 36.54 54.6998 36.66 54.7198C36.83 54.7598 37.03 54.6798 37.24 54.4998C37.45 54.3198 37.7 54.1398 37.98 53.9698C38.26 53.7998 38.58 53.7498 38.95 53.8298C39.14 53.8698 39.3 53.9298 39.43 53.9998C39.56 54.0698 39.62 54.1598 39.59 54.2598L39.57 54.3398C39.31 54.7398 39.06 55.2798 38.83 55.9698C38.6 56.6598 38.41 57.3598 38.26 58.0798C38.13 58.7098 38.05 59.2998 38.01 59.8698C37.97 60.4298 37.99 60.8998 38.07 61.2598C38.15 61.6198 38.3 61.8198 38.51 61.8698C38.72 61.9198 38.94 61.8398 39.18 61.6498C39.42 61.4598 39.64 61.2498 39.84 61.0198C40.04 60.7898 40.18 60.6198 40.26 60.5098C40.77 59.8998 41.08 59.5098 41.21 59.3298C41.34 59.1498 41.47 59.0698 41.61 59.0998C41.66 59.1098 41.68 59.1498 41.67 59.2198C41.67 59.2598 41.63 59.3398 41.56 59.4698C41.23 59.9998 40.85 60.5498 40.42 61.1098C39.99 61.6698 39.52 62.1198 39.01 62.4698C38.5 62.8198 37.99 62.9398 37.46 62.8398V62.8298Z" fill="black"/>
<path d="M42.47 64.8599C41.88 64.7399 41.46 64.4499 41.21 63.9999C40.96 63.5499 40.85 63.0099 40.86 62.3899C40.86 61.7599 40.94 61.1499 41.06 60.5399C41.15 60.1199 41.24 59.7299 41.36 59.3599C41.47 58.9899 41.57 58.6699 41.67 58.3999C41.9 57.6999 42.16 57.0399 42.43 56.3999C42.7 55.7599 42.96 55.2299 43.18 54.7799C43.4 54.3299 43.55 54.0499 43.62 53.9199C43.74 53.6899 43.89 53.5899 44.09 53.6299C44.29 53.6699 44.47 53.8399 44.67 54.1399C44.86 54.4399 45 54.6799 45.07 54.8599C45.45 55.0599 45.81 55.2899 46.16 55.5299C46.51 55.7699 46.79 56.0199 47.01 56.2599C47.22 56.4999 47.31 56.7399 47.26 56.9699C47.17 57.3999 46.9 57.7999 46.44 58.1699C45.98 58.5399 45.44 58.8399 44.81 59.0899C44.18 59.3399 43.55 59.5399 42.92 59.6899C42.78 60.0999 42.67 60.5099 42.59 60.9299C42.45 61.6299 42.41 62.2599 42.48 62.8199C42.55 63.3799 42.79 63.6999 43.21 63.7899C43.58 63.8599 43.96 63.8099 44.35 63.6099C44.74 63.4199 45.13 63.1499 45.51 62.8099C45.89 62.4699 46.24 62.1199 46.56 61.7599C46.88 61.3999 47.13 61.0899 47.31 60.8299C47.37 60.7299 47.46 60.6999 47.58 60.7199C47.65 60.7299 47.67 60.8199 47.64 60.9599C47.61 61.0999 47.44 61.3899 47.14 61.7999C46.85 62.1699 46.55 62.5299 46.26 62.8599C45.97 63.1899 45.69 63.4699 45.42 63.7099C45.04 64.0299 44.61 64.3299 44.1 64.6099C43.59 64.8899 43.07 64.9699 42.51 64.8599H42.47ZM43.13 58.9699C43.81 58.7599 44.43 58.4799 45.01 58.1099C45.58 57.7499 45.93 57.2899 46.04 56.7499C46.08 56.5599 45.98 56.3299 45.73 56.0699C45.48 55.8099 45.18 55.5699 44.83 55.3599C44.51 55.8799 44.21 56.4299 43.93 57.0299C43.65 57.6299 43.39 58.2799 43.14 58.9699H43.13Z" fill="black"/>
<path d="M49.57 88.9299C49.27 88.9299 48.99 88.8099 48.74 88.5799C48.49 88.3499 48.37 88.1399 48.37 87.9599C48.37 87.9299 48.37 87.9099 48.38 87.8799C48.38 87.8499 48.4 87.8199 48.41 87.7999C48.41 87.7699 48.41 87.7599 48.43 87.7599H48.41C48.3 87.7599 48.21 87.7299 48.14 87.6799C47.63 87.3199 47.26 86.8999 47.04 86.4199C46.82 85.9399 46.71 85.3999 46.71 84.7999C46.71 83.9899 46.89 83.1099 47.25 82.1599C47.61 81.2099 48.08 80.2499 48.67 79.2799C49.26 78.3099 49.9 77.3699 50.6 76.4699C51.3 75.5699 51.99 74.7599 52.68 74.0299C52.69 73.9299 52.7 73.8399 52.7 73.7599V73.4899C52.7 72.8799 52.67 72.3399 52.62 71.8599C52.56 71.3799 52.5 70.9699 52.41 70.6299C52 71.1299 51.65 71.5899 51.37 72.0199C51.09 72.4499 50.83 72.8899 50.57 73.3299C50.31 73.7799 50.01 74.2999 49.65 74.8899C49.47 75.1799 49.24 75.5299 48.96 75.9299C48.68 76.3399 48.36 76.7399 48.02 77.1299C47.67 77.5199 47.31 77.8499 46.92 78.1099C46.53 78.3699 46.13 78.4999 45.72 78.4999C45.24 78.4999 44.8 78.3699 44.4 78.1199C44.01 77.8599 43.7 77.5199 43.47 77.0899C43.24 76.6599 43.13 76.1899 43.13 75.6799C43.13 74.5299 43.43 73.4099 44.03 72.3199C44.63 71.2299 45.41 70.2399 46.36 69.3399H45.74C45.49 69.3399 45.32 69.3199 45.22 69.2799C45.12 69.2399 45.08 69.1999 45.08 69.1599C45.08 69.1099 45.13 69.0599 45.25 69.0199C45.36 68.9799 45.48 68.9599 45.62 68.9599C45.73 68.9599 45.89 68.9599 46.1 68.9499C46.31 68.9399 46.56 68.9299 46.85 68.9199C47.65 68.2199 48.51 67.5999 49.44 67.0799C50.36 66.5599 51.29 66.1499 52.22 65.8599C53.15 65.5699 54.02 65.4299 54.84 65.4299C55.12 65.4299 55.38 65.4499 55.62 65.4999C55.86 65.5499 56.09 65.6099 56.31 65.6799C56.43 65.7199 56.55 65.8499 56.65 66.0499C56.75 66.2499 56.83 66.4699 56.89 66.6999C56.95 66.9299 56.97 67.0999 56.97 67.2299V67.3099C56.82 67.5299 56.52 67.7299 56.07 67.9099C55.62 68.0899 55.08 68.2499 54.43 68.3999C53.78 68.5499 53.1 68.6699 52.37 68.7799C51.64 68.8899 50.9 68.9799 50.16 69.0599C49.42 69.1399 48.73 69.1999 48.1 69.2599C47.38 69.8799 46.75 70.5599 46.19 71.3099C45.64 72.0499 45.21 72.8099 44.9 73.5899C44.59 74.3599 44.43 75.1199 44.43 75.8499C44.43 76.2799 44.53 76.6299 44.72 76.9099C44.91 77.1899 45.22 77.3199 45.65 77.3199C46.02 77.3199 46.39 77.2399 46.76 77.0799C47.13 76.9199 47.44 76.6899 47.7 76.3899C48.11 75.9299 48.54 75.3999 48.97 74.7799C49.4 74.1599 49.82 73.5099 50.22 72.8299C50.62 72.1499 50.97 71.4999 51.28 70.8599C51.58 70.2199 51.8 69.6599 51.94 69.1599C51.94 69.1299 51.97 69.1199 52.04 69.1199C52.15 69.1199 52.31 69.1499 52.53 69.2099C52.74 69.2699 52.94 69.3699 53.12 69.4899C53.3 69.6099 53.4 69.7699 53.43 69.9699C53.48 70.3199 53.53 70.6799 53.55 71.0599C53.58 71.4399 53.59 71.8399 53.59 72.2699C53.59 72.4099 53.59 72.5399 53.58 72.6699C53.57 72.7999 53.57 72.9399 53.57 73.0899C54.44 72.2499 55.15 71.6699 55.7 71.3699C55.87 71.2999 56 71.2699 56.09 71.2699C56.21 71.2699 56.28 71.3099 56.28 71.3899C56.28 71.4299 56.26 71.4699 56.22 71.5099C55.78 71.8299 55.33 72.1799 54.87 72.5699C54.41 72.9599 53.97 73.3699 53.52 73.8099C53.44 74.9699 53.29 76.1599 53.08 77.3899C52.87 78.6199 52.63 79.8199 52.36 80.9799C52.08 82.1499 51.81 83.2199 51.53 84.1899C51.25 85.1599 51.01 85.9799 50.78 86.6299C50.55 87.2799 50.39 87.7199 50.28 87.9199C50.13 88.1799 50.01 88.4099 49.94 88.6099C49.86 88.8099 49.73 88.9099 49.54 88.9099L49.57 88.9299ZM48.68 87.1899C49.11 86.2599 49.53 85.2799 49.95 84.2299C50.37 83.1799 50.77 82.1099 51.14 81.0299C51.51 79.9499 51.83 78.8699 52.08 77.8099C52.34 76.7499 52.51 75.7399 52.61 74.7899C51.91 75.5499 51.25 76.3499 50.63 77.1999C50.01 78.0499 49.47 78.8999 48.99 79.7599C48.51 80.6199 48.14 81.4499 47.87 82.2599C47.6 83.0699 47.47 83.8199 47.47 84.5299C47.47 85.0799 47.56 85.5899 47.75 86.0399C47.94 86.4999 48.24 86.8799 48.67 87.1999L48.68 87.1899ZM48.68 68.7799C49.41 68.7099 50.17 68.6199 50.97 68.4999C51.76 68.3799 52.52 68.2399 53.24 68.0899C53.96 67.9399 54.57 67.7499 55.08 67.5399C55.59 67.3299 55.92 67.0999 56.07 66.8399C55.64 66.6299 55.13 66.5299 54.54 66.5299C53.52 66.5299 52.5 66.7399 51.5 67.1499C50.5 67.5599 49.55 68.1099 48.68 68.7899V68.7799Z" fill="black"/>
<path d="M60.4 80.4999C60.25 80.4999 60.08 80.4399 59.9 80.3199C59.72 80.1999 59.6 80.0799 59.53 79.9399C59.53 79.6199 59.57 79.1899 59.65 78.6399C59.73 78.0899 59.83 77.5199 59.93 76.9299C60.03 76.3399 60.13 75.8399 60.21 75.4299C59.96 75.8199 59.68 76.2399 59.36 76.6899C59.04 77.1499 58.72 77.5699 58.39 77.9599C58.06 78.3499 57.72 78.6799 57.39 78.9299C57.05 79.1899 56.74 79.3099 56.45 79.3099C56.16 79.3099 55.93 79.2099 55.77 79.0099C55.6 78.8099 55.52 78.5799 55.52 78.3199C55.52 78.2499 55.53 78.1599 55.56 78.0499C55.68 77.4099 55.93 76.8199 56.29 76.2599C56.65 75.6999 57.08 75.2099 57.55 74.7799C58.03 74.3499 58.5 74.0099 58.97 73.7699C59.44 73.5199 59.84 73.3999 60.17 73.3999C60.42 73.3999 60.66 73.4499 60.88 73.5599C61.11 73.6599 61.33 73.8299 61.53 74.0699C61.57 74.1099 61.59 74.1599 61.59 74.2099C61.59 74.2799 61.55 74.3499 61.47 74.4199C61.37 74.7499 61.27 75.1499 61.17 75.6099C61.07 76.0699 60.97 76.5499 60.88 77.0399C60.79 77.5299 60.72 77.9799 60.66 78.3999C60.61 78.8099 60.58 79.1299 60.58 79.3499C60.58 79.4999 60.6 79.5799 60.64 79.5799C60.75 79.5799 60.89 79.4599 61.06 79.2299C61.23 78.9999 61.4 78.7299 61.57 78.4199C61.74 78.1199 61.88 77.8499 62.01 77.6099C62.14 77.3799 62.22 77.2599 62.25 77.2599C62.29 77.2599 62.31 77.3099 62.31 77.4299C62.31 77.6599 62.23 77.9499 62.08 78.2999C61.93 78.6499 61.75 78.9899 61.53 79.3199C61.32 79.6599 61.1 79.9399 60.89 80.1699C60.68 80.3999 60.51 80.5099 60.38 80.5099L60.4 80.4999ZM56.61 78.5499C56.8 78.5499 57.05 78.4399 57.35 78.2199C57.65 77.9999 57.96 77.7199 58.28 77.3699C58.6 77.0299 58.92 76.6599 59.23 76.2699C59.54 75.8799 59.81 75.5099 60.04 75.1599C60.27 74.8099 60.43 74.5199 60.53 74.2999C60.25 74.2999 59.94 74.3999 59.58 74.5999C59.22 74.7999 58.86 75.0599 58.48 75.3699C58.11 75.6799 57.76 76.0199 57.44 76.3899C57.12 76.7599 56.87 77.1099 56.67 77.4599C56.48 77.8099 56.38 78.0999 56.38 78.3499C56.38 78.4899 56.46 78.5599 56.61 78.5599V78.5499Z" fill="black"/>
<path d="M65.78 80.2299C65.27 80.2299 64.92 79.9399 64.74 79.3699C64.56 78.7999 64.47 78.0899 64.47 77.2499C64.47 76.7899 64.48 76.3499 64.51 75.9099C64.54 75.4799 64.56 75.1099 64.57 74.8199C64.35 74.7899 64.14 74.7499 63.94 74.6899C63.74 74.6299 63.58 74.5599 63.47 74.4899C63.46 74.5899 63.4 74.7799 63.3 75.0799C63.2 75.3799 63.09 75.7199 62.96 76.1099C62.83 76.4999 62.69 76.8799 62.54 77.2499C62.39 77.6199 62.24 77.9299 62.11 78.1699C61.97 78.4099 61.85 78.5299 61.74 78.5299C61.68 78.5299 61.66 78.4899 61.66 78.4099C61.66 78.2999 61.71 78.1499 61.8 77.9499C62.08 77.3799 62.32 76.7999 62.55 76.2099C62.78 75.6199 62.97 74.9999 63.15 74.3699C63.01 74.3199 62.91 74.2099 62.85 74.0699C62.79 73.9299 62.76 73.7599 62.76 73.5799C62.76 73.0799 62.83 72.6699 62.98 72.3599C63.12 72.0399 63.29 71.7999 63.47 71.6499C63.65 71.4999 63.79 71.4099 63.88 71.4099C64.05 71.4099 64.13 71.5499 64.13 71.8199C64.13 71.9599 64.1 72.1699 64.03 72.4499C63.96 72.7299 63.88 73.0199 63.78 73.3199C63.68 73.6199 63.6 73.8599 63.53 74.0299C63.7 74.1399 63.83 74.1999 63.92 74.1999C64.06 74.1999 64.19 74.1099 64.32 73.9399C64.45 73.7699 64.61 73.5899 64.8 73.4199C64.99 73.2499 65.22 73.1599 65.51 73.1599C65.66 73.1599 65.79 73.1799 65.9 73.2099C66.01 73.2499 66.07 73.2999 66.07 73.3899V73.4499C65.93 73.7999 65.83 74.2499 65.76 74.8099C65.69 75.3699 65.66 75.9299 65.66 76.4999C65.66 76.9999 65.69 77.4599 65.74 77.8999C65.79 78.3299 65.88 78.6799 66 78.9399C66.12 79.1999 66.26 79.3299 66.42 79.3299C66.58 79.3299 66.74 79.2399 66.9 79.0599C67.05 78.8799 67.19 78.6899 67.3 78.4799C67.41 78.2699 67.5 78.1199 67.54 78.0199C67.83 77.4799 68.01 77.1299 68.08 76.9799C68.15 76.8299 68.24 76.7399 68.35 76.7399C68.39 76.7399 68.41 76.7699 68.41 76.8199C68.41 76.8499 68.4 76.9199 68.37 77.0299C68.2 77.4899 68 77.9599 67.76 78.4499C67.52 78.9399 67.23 79.3599 66.9 79.6999C66.57 80.0399 66.2 80.2199 65.78 80.2199V80.2299Z" fill="black"/>
<path d="M76.01 83.3299C75.53 83.3299 75.1 83.0299 74.73 82.4399C74.29 81.7499 73.94 80.9399 73.67 79.9999C73.41 79.0599 73.21 78.0499 73.07 76.9499C72.84 77.3199 72.56 77.7199 72.24 78.1299C71.92 78.5399 71.57 78.9299 71.18 79.2999C70.79 79.6699 70.39 79.9599 69.98 80.1899C69.57 80.4199 69.14 80.5299 68.72 80.5299C68.32 80.5299 68.01 80.4599 67.78 80.3199C67.55 80.1799 67.39 80.0199 67.28 79.8299C67.18 79.6399 67.11 79.4699 67.09 79.2999C67.07 79.1299 67.06 79.0199 67.06 78.9499C67.06 78.5599 67.2 78.1399 67.48 77.6899C67.76 77.2299 68.16 76.7999 68.68 76.3999C69.2 75.9899 69.81 75.6599 70.52 75.3999C71.23 75.1399 72.01 75.0099 72.85 75.0099H72.87C72.84 74.4999 72.82 73.9799 72.81 73.4599C72.79 72.9399 72.79 72.3999 72.79 71.8699C72.79 71.1399 72.81 70.4099 72.85 69.6899C72.89 68.9699 72.96 68.3199 73.07 67.7299C73.17 67.1399 73.32 66.6899 73.49 66.3499C73.57 66.2099 73.7 66.1399 73.86 66.1399C74.22 66.1399 74.54 66.2699 74.83 66.5399C75.12 66.8099 75.35 67.1299 75.53 67.4999C75.71 67.8699 75.8 68.2299 75.8 68.5799C75.8 69.5899 75.62 70.6299 75.26 71.7099C74.9 72.7899 74.48 73.9199 74 75.1099V75.1699L74.29 75.2699C74.57 75.4099 74.8 75.5799 74.98 75.7799C75.17 75.9799 75.26 76.1599 75.26 76.3099C75.26 76.3599 75.24 76.3899 75.2 76.3899C75.16 76.3899 75.12 76.3499 75.08 76.2899C74.73 75.9899 74.39 75.7899 74.05 75.7099C74.16 76.8699 74.34 77.9399 74.59 78.9099C74.84 79.8799 75.16 80.7299 75.56 81.4499C75.79 81.8799 75.99 82.1699 76.14 82.3299C76.29 82.4899 76.42 82.5699 76.53 82.5699C76.64 82.5699 76.74 82.4999 76.83 82.3699C76.92 82.2399 76.99 82.1699 77.05 82.1699C77.09 82.1699 77.11 82.2099 77.11 82.2899V82.3699C77.08 82.4399 77.03 82.5499 76.94 82.6999C76.86 82.8499 76.74 82.9899 76.59 83.1199C76.44 83.2499 76.24 83.3199 75.99 83.3199L76.01 83.3299ZM68.49 80.0399C68.83 80.0399 69.22 79.9299 69.64 79.6999C70.06 79.4699 70.48 79.1799 70.9 78.8199C71.32 78.4599 71.71 78.0699 72.08 77.6499C72.45 77.2299 72.75 76.8299 73 76.4399L72.92 75.5699C72.56 75.5799 72.16 75.6899 71.71 75.8799C71.26 76.0699 70.81 76.3099 70.34 76.5999C69.88 76.8899 69.45 77.1999 69.07 77.5399C68.68 77.8799 68.37 78.2099 68.13 78.5299C67.89 78.8499 67.77 79.1499 67.77 79.4099C67.77 79.6599 67.9 79.8499 68.16 79.9899C68.22 79.9999 68.27 80.0099 68.33 80.0199C68.38 80.0199 68.44 80.0299 68.5 80.0299L68.49 80.0399ZM73.96 74.3699C74.25 73.6299 74.48 72.9599 74.66 72.3599C74.84 71.7699 75 71.1199 75.14 70.4299C75.18 70.2099 75.22 69.9799 75.24 69.7399C75.27 69.4999 75.28 69.2699 75.28 69.0499C75.28 68.6499 75.24 68.2999 75.17 67.9899C75.1 67.6799 74.97 67.5099 74.81 67.4499C74.56 67.6599 74.37 67.9999 74.24 68.4799C74.11 68.9599 74.02 69.4999 73.97 70.1099C73.92 70.7299 73.9 71.3399 73.9 71.9599C73.9 72.7899 73.92 73.5899 73.96 74.3599V74.3699Z" fill="black"/>
<path d="M79.12 81C78.65 81 78.29 80.85 78.03 80.54C77.77 80.24 77.6 79.85 77.51 79.37C77.42 78.89 77.38 78.41 77.38 77.93C77.38 77.6 77.39 77.28 77.42 76.99C77.45 76.69 77.48 76.43 77.5 76.21C77.57 75.64 77.66 75.1 77.77 74.57C77.88 74.05 77.99 73.6 78.09 73.23C78.19 72.86 78.26 72.61 78.29 72.51C78.34 72.32 78.45 72.22 78.6 72.22C78.75 72.22 78.92 72.32 79.12 72.52C79.32 72.72 79.45 72.88 79.53 73.01C79.85 73.11 80.16 73.22 80.46 73.35C80.76 73.48 81.01 73.62 81.22 73.77C81.43 73.92 81.52 74.09 81.52 74.27C81.52 74.62 81.38 74.96 81.09 75.3C80.8 75.65 80.43 75.96 79.99 76.25C79.55 76.54 79.1 76.79 78.64 76.99C78.6 77.32 78.58 77.65 78.58 77.98C78.58 78.53 78.65 79.01 78.79 79.43C78.93 79.85 79.16 80.05 79.49 80.05C79.78 80.05 80.06 79.95 80.33 79.74C80.6 79.53 80.85 79.27 81.09 78.95C81.33 78.63 81.54 78.31 81.72 77.99C81.91 77.67 82.05 77.39 82.14 77.17C82.17 77.09 82.23 77.05 82.33 77.05C82.38 77.05 82.41 77.11 82.41 77.23C82.41 77.35 82.33 77.59 82.16 77.94C81.99 78.27 81.83 78.59 81.65 78.88C81.48 79.18 81.31 79.44 81.14 79.66C80.91 79.96 80.62 80.26 80.28 80.55C79.94 80.84 79.55 80.98 79.11 80.98L79.12 81ZM78.71 76.42C79.19 76.16 79.63 75.84 80 75.48C80.38 75.11 80.57 74.72 80.57 74.29C80.57 74.14 80.46 73.98 80.23 73.82C80 73.66 79.74 73.53 79.43 73.42C79.26 73.86 79.12 74.33 79.01 74.83C78.89 75.33 78.79 75.86 78.71 76.42Z" fill="black"/>
<path d="M83.51 82.6099C83.37 82.6099 83.18 82.4999 82.94 82.2899C82.7 82.0799 82.53 81.7999 82.43 81.4499C82.37 81.2199 82.33 80.8999 82.31 80.4999C82.28 80.0999 82.27 79.6499 82.27 79.1499C82.27 78.3199 82.29 77.4299 82.32 76.4799C82.35 75.5299 82.37 74.6699 82.37 73.9099C82.37 73.6599 82.37 73.4299 82.36 73.2099C82.35 72.9899 82.34 72.7999 82.33 72.6299C82.3 72.5999 82.22 72.5799 82.09 72.5599C81.96 72.5399 81.77 72.5099 81.54 72.4699C81.54 72.4399 81.65 72.3799 81.86 72.2699C82.07 72.1699 82.38 72.1099 82.78 72.1099C83.18 72.1099 83.47 72.1999 83.6 72.3699C83.73 72.5399 83.8 72.6899 83.8 72.8099V72.9099C83.8 72.9099 83.8 72.9899 83.78 73.0099C83.63 73.7399 83.48 74.5999 83.35 75.5899C83.21 76.5799 83.14 77.6199 83.14 78.7099C83.14 78.9699 83.14 79.1999 83.15 79.3999C83.15 79.5999 83.16 79.7799 83.16 79.9299V80.1199C83.24 79.3499 83.39 78.6099 83.59 77.9099C83.8 77.2099 84 76.4499 84.21 75.6199C84.38 74.8999 84.52 74.3499 84.63 73.9499C84.75 73.5599 84.87 73.2799 85 73.1199C85.13 72.9599 85.29 72.8799 85.47 72.8799C85.72 72.8799 85.89 72.9799 85.99 73.1899C86.09 73.3999 86.15 73.6799 86.18 74.0399C86.21 74.3999 86.24 74.8099 86.26 75.2699C86.29 75.7299 86.36 76.2299 86.47 76.7499C86.64 77.5399 86.83 78.1099 87.05 78.4699C87.27 78.8299 87.46 79.0099 87.61 79.0099C87.79 79.0099 87.97 78.8999 88.15 78.6699C88.33 78.4399 88.5 78.1799 88.67 77.8699C88.84 77.5699 88.98 77.2999 89.11 77.0699C89.24 76.8399 89.35 76.7299 89.43 76.7299C89.47 76.7299 89.49 76.7599 89.49 76.8299C89.49 76.8899 89.47 76.9699 89.43 77.0999C89.08 77.8699 88.79 78.4699 88.56 78.8899C88.32 79.3099 88 79.5199 87.59 79.5199C87.27 79.5199 86.95 79.3799 86.64 79.1099C86.47 78.9699 86.31 78.7499 86.15 78.4399C85.99 78.1299 85.84 77.7899 85.71 77.4199C85.58 77.0499 85.44 76.6899 85.33 76.3499C85.21 76.0099 85.11 75.7299 85.03 75.5099C84.95 75.2899 84.89 75.1799 84.86 75.1799C84.83 75.1799 84.79 75.2099 84.73 75.2599C84.67 75.3199 84.62 75.4099 84.6 75.5499C84.37 76.4099 84.18 77.2499 84.03 78.0899C83.89 78.9299 83.78 79.6799 83.71 80.3499C83.64 81.0199 83.61 81.5299 83.61 81.8899C83.61 82.0699 83.62 82.1999 83.64 82.2699C83.66 82.3399 83.67 82.3999 83.67 82.4499C83.67 82.5499 83.62 82.5899 83.53 82.5899L83.51 82.6099Z" fill="black"/>
<path d="M87.68 28.9699C85.61 28.2299 84.71 31.3999 86.83 31.9999C88.78 32.6999 89.64 29.6699 87.68 28.9699Z" fill="#BA0909"/>
<path d="M77.69 24.5201C79.47 25.0201 80.12 22.8701 78.58 22.0101C76.8 21.5101 75.92 24.0201 77.69 24.5201Z" fill="#BA0909"/>
<path d="M69.15 14.91C67.35 14.41 66.56 17.2 68.37 17.71C70.18 18.22 70.96 15.42 69.15 14.91Z" fill="#BA0909"/>
<path d="M75.89 30.39L75.99 29.56C76.14 27.78 76.42 26.81 77.01 25.04C75.9 25.05 74.77 26.11 73.62 28.97C73.17 28.26 72.82 28.02 71.67 27.8C73.02 24.68 70.83 20.72 68.07 18.78C70.27 21.84 69.88 25.63 67.87 28.49C67.8 29.02 68.19 29.49 68.72 29.53C71.7 29.95 74.52 31.37 76.65 33.5C76.77 33.6 76.92 33.84 77.35 34.05C77.81 34.28 78.39 34.13 78.62 33.97C79.45 33.38 80.03 32.86 80.96 32.45C82.26 31.84 83.72 31.51 85.27 31.5C84.06 30.78 82.31 29.96 78.09 30.89C77.5 30.43 76.77 30.26 75.9 30.4L75.89 30.39ZM77.92 32.54C77.92 32.54 77.9 32.54 77.9 32.55C77.85 32.56 77.87 32.55 77.92 32.54Z" fill="#BA0909"/>
</g>
<defs>
<clipPath id="clip0_627_77">
<rect width="100" height="100" fill="white"/>
</clipPath>
</defs>
</svg>
